<mxfile host="app.diagrams.net" modified="2021-12-20T19:08:58.400Z" agent="5.0 (Windows)" etag="XMkYIIR56mJbh5MkeYD5" version="16.0.0" type="github">
  <diagram id="C5RBs43oDa-KdzZeNtuy" name="Page-1">
    <mxGraphModel dx="1302" dy="1894" grid="1" gridSize="10" guides="1" tooltips="1" connect="1" arrows="1" fold="1" page="1" pageScale="1" pageWidth="827" pageHeight="1169" math="0" shadow="0">
      <root>
        <mxCell id="WIyWlLk6GJQsqaUBKTNV-0" />
        <mxCell id="WIyWlLk6GJQsqaUBKTNV-1" parent="WIyWlLk6GJQsqaUBKTNV-0" />
        <mxCell id="vyFX91zkhyFve1yzSaoB-7" style="edgeStyle=orthogonalEdgeStyle;rounded=0;orthogonalLoop=1;jettySize=auto;html=1;entryX=0.5;entryY=0;entryDx=0;entryDy=0;" edge="1" parent="WIyWlLk6GJQsqaUBKTNV-1" source="WIyWlLk6GJQsqaUBKTNV-3" target="vyFX91zkhyFve1yzSaoB-0">
          <mxGeometry relative="1" as="geometry" />
        </mxCell>
        <mxCell id="WIyWlLk6GJQsqaUBKTNV-3" value="Development order for game" style="rounded=1;whiteSpace=wrap;html=1;fontSize=12;glass=0;strokeWidth=1;shadow=0;" parent="WIyWlLk6GJQsqaUBKTNV-1" vertex="1">
          <mxGeometry x="354" y="20" width="120" height="40" as="geometry" />
        </mxCell>
        <mxCell id="vyFX91zkhyFve1yzSaoB-2" value="" style="edgeStyle=orthogonalEdgeStyle;rounded=0;orthogonalLoop=1;jettySize=auto;html=1;" edge="1" parent="WIyWlLk6GJQsqaUBKTNV-1" source="vyFX91zkhyFve1yzSaoB-0" target="vyFX91zkhyFve1yzSaoB-1">
          <mxGeometry relative="1" as="geometry" />
        </mxCell>
        <mxCell id="vyFX91zkhyFve1yzSaoB-9" value="" style="edgeStyle=orthogonalEdgeStyle;rounded=0;orthogonalLoop=1;jettySize=auto;html=1;" edge="1" parent="WIyWlLk6GJQsqaUBKTNV-1" source="vyFX91zkhyFve1yzSaoB-0" target="vyFX91zkhyFve1yzSaoB-8">
          <mxGeometry relative="1" as="geometry" />
        </mxCell>
        <mxCell id="vyFX91zkhyFve1yzSaoB-13" value="" style="edgeStyle=orthogonalEdgeStyle;rounded=0;orthogonalLoop=1;jettySize=auto;html=1;" edge="1" parent="WIyWlLk6GJQsqaUBKTNV-1" source="vyFX91zkhyFve1yzSaoB-0" target="vyFX91zkhyFve1yzSaoB-12">
          <mxGeometry relative="1" as="geometry" />
        </mxCell>
        <mxCell id="vyFX91zkhyFve1yzSaoB-0" value="Gameplay mechanics" style="rounded=0;whiteSpace=wrap;html=1;" vertex="1" parent="WIyWlLk6GJQsqaUBKTNV-1">
          <mxGeometry x="354" y="90" width="120" height="40" as="geometry" />
        </mxCell>
        <mxCell id="vyFX91zkhyFve1yzSaoB-4" value="" style="edgeStyle=orthogonalEdgeStyle;rounded=0;orthogonalLoop=1;jettySize=auto;html=1;" edge="1" parent="WIyWlLk6GJQsqaUBKTNV-1" source="vyFX91zkhyFve1yzSaoB-1" target="vyFX91zkhyFve1yzSaoB-3">
          <mxGeometry relative="1" as="geometry" />
        </mxCell>
        <mxCell id="vyFX91zkhyFve1yzSaoB-1" value="Level design" style="rounded=0;whiteSpace=wrap;html=1;" vertex="1" parent="WIyWlLk6GJQsqaUBKTNV-1">
          <mxGeometry x="354" y="280" width="120" height="30" as="geometry" />
        </mxCell>
        <mxCell id="vyFX91zkhyFve1yzSaoB-6" value="" style="edgeStyle=orthogonalEdgeStyle;rounded=0;orthogonalLoop=1;jettySize=auto;html=1;" edge="1" parent="WIyWlLk6GJQsqaUBKTNV-1" source="vyFX91zkhyFve1yzSaoB-3" target="vyFX91zkhyFve1yzSaoB-5">
          <mxGeometry relative="1" as="geometry" />
        </mxCell>
        <mxCell id="vyFX91zkhyFve1yzSaoB-34" value="" style="edgeStyle=orthogonalEdgeStyle;rounded=0;orthogonalLoop=1;jettySize=auto;html=1;" edge="1" parent="WIyWlLk6GJQsqaUBKTNV-1" source="vyFX91zkhyFve1yzSaoB-3" target="vyFX91zkhyFve1yzSaoB-33">
          <mxGeometry relative="1" as="geometry" />
        </mxCell>
        <mxCell id="vyFX91zkhyFve1yzSaoB-3" value="Menus/UI" style="rounded=0;whiteSpace=wrap;html=1;" vertex="1" parent="WIyWlLk6GJQsqaUBKTNV-1">
          <mxGeometry x="354" y="470" width="120" height="30" as="geometry" />
        </mxCell>
        <mxCell id="vyFX91zkhyFve1yzSaoB-38" value="" style="edgeStyle=orthogonalEdgeStyle;rounded=0;orthogonalLoop=1;jettySize=auto;html=1;" edge="1" parent="WIyWlLk6GJQsqaUBKTNV-1" source="vyFX91zkhyFve1yzSaoB-5" target="vyFX91zkhyFve1yzSaoB-37">
          <mxGeometry relative="1" as="geometry" />
        </mxCell>
        <mxCell id="vyFX91zkhyFve1yzSaoB-40" value="" style="edgeStyle=orthogonalEdgeStyle;rounded=0;orthogonalLoop=1;jettySize=auto;html=1;" edge="1" parent="WIyWlLk6GJQsqaUBKTNV-1" source="vyFX91zkhyFve1yzSaoB-5" target="vyFX91zkhyFve1yzSaoB-39">
          <mxGeometry relative="1" as="geometry" />
        </mxCell>
        <mxCell id="vyFX91zkhyFve1yzSaoB-5" value="Polish" style="rounded=0;whiteSpace=wrap;html=1;" vertex="1" parent="WIyWlLk6GJQsqaUBKTNV-1">
          <mxGeometry x="354" y="670" width="120" height="30" as="geometry" />
        </mxCell>
        <mxCell id="vyFX91zkhyFve1yzSaoB-28" value="" style="edgeStyle=orthogonalEdgeStyle;rounded=0;orthogonalLoop=1;jettySize=auto;html=1;" edge="1" parent="WIyWlLk6GJQsqaUBKTNV-1" source="vyFX91zkhyFve1yzSaoB-8" target="vyFX91zkhyFve1yzSaoB-27">
          <mxGeometry relative="1" as="geometry" />
        </mxCell>
        <mxCell id="vyFX91zkhyFve1yzSaoB-30" value="" style="edgeStyle=orthogonalEdgeStyle;rounded=0;orthogonalLoop=1;jettySize=auto;html=1;" edge="1" parent="WIyWlLk6GJQsqaUBKTNV-1" source="vyFX91zkhyFve1yzSaoB-8" target="vyFX91zkhyFve1yzSaoB-29">
          <mxGeometry relative="1" as="geometry" />
        </mxCell>
        <mxCell id="vyFX91zkhyFve1yzSaoB-8" value="Player" style="rounded=0;whiteSpace=wrap;html=1;" vertex="1" parent="WIyWlLk6GJQsqaUBKTNV-1">
          <mxGeometry x="154" y="90" width="120" height="40" as="geometry" />
        </mxCell>
        <mxCell id="vyFX91zkhyFve1yzSaoB-15" value="" style="edgeStyle=orthogonalEdgeStyle;rounded=0;orthogonalLoop=1;jettySize=auto;html=1;" edge="1" parent="WIyWlLk6GJQsqaUBKTNV-1" source="vyFX91zkhyFve1yzSaoB-12" target="vyFX91zkhyFve1yzSaoB-14">
          <mxGeometry relative="1" as="geometry" />
        </mxCell>
        <mxCell id="vyFX91zkhyFve1yzSaoB-18" value="" style="edgeStyle=orthogonalEdgeStyle;rounded=0;orthogonalLoop=1;jettySize=auto;html=1;" edge="1" parent="WIyWlLk6GJQsqaUBKTNV-1" source="vyFX91zkhyFve1yzSaoB-12" target="vyFX91zkhyFve1yzSaoB-17">
          <mxGeometry relative="1" as="geometry" />
        </mxCell>
        <mxCell id="vyFX91zkhyFve1yzSaoB-20" value="" style="edgeStyle=orthogonalEdgeStyle;rounded=0;orthogonalLoop=1;jettySize=auto;html=1;" edge="1" parent="WIyWlLk6GJQsqaUBKTNV-1" source="vyFX91zkhyFve1yzSaoB-12" target="vyFX91zkhyFve1yzSaoB-19">
          <mxGeometry relative="1" as="geometry" />
        </mxCell>
        <mxCell id="vyFX91zkhyFve1yzSaoB-22" value="" style="edgeStyle=orthogonalEdgeStyle;rounded=0;orthogonalLoop=1;jettySize=auto;html=1;" edge="1" parent="WIyWlLk6GJQsqaUBKTNV-1" source="vyFX91zkhyFve1yzSaoB-12" target="vyFX91zkhyFve1yzSaoB-21">
          <mxGeometry relative="1" as="geometry" />
        </mxCell>
        <mxCell id="vyFX91zkhyFve1yzSaoB-24" value="" style="edgeStyle=orthogonalEdgeStyle;rounded=0;orthogonalLoop=1;jettySize=auto;html=1;" edge="1" parent="WIyWlLk6GJQsqaUBKTNV-1" source="vyFX91zkhyFve1yzSaoB-12" target="vyFX91zkhyFve1yzSaoB-23">
          <mxGeometry relative="1" as="geometry" />
        </mxCell>
        <mxCell id="vyFX91zkhyFve1yzSaoB-12" value="Platforms" style="rounded=0;whiteSpace=wrap;html=1;" vertex="1" parent="WIyWlLk6GJQsqaUBKTNV-1">
          <mxGeometry x="554" y="100" width="86" height="20" as="geometry" />
        </mxCell>
        <mxCell id="vyFX91zkhyFve1yzSaoB-14" value="Default" style="rhombus;whiteSpace=wrap;html=1;rounded=0;" vertex="1" parent="WIyWlLk6GJQsqaUBKTNV-1">
          <mxGeometry x="723" y="70" width="80" height="80" as="geometry" />
        </mxCell>
        <mxCell id="vyFX91zkhyFve1yzSaoB-17" value="Bouncy" style="rhombus;whiteSpace=wrap;html=1;rounded=0;" vertex="1" parent="WIyWlLk6GJQsqaUBKTNV-1">
          <mxGeometry x="680" y="150" width="80" height="80" as="geometry" />
        </mxCell>
        <mxCell id="vyFX91zkhyFve1yzSaoB-19" value="Slopes/ramps" style="rhombus;whiteSpace=wrap;html=1;rounded=0;" vertex="1" parent="WIyWlLk6GJQsqaUBKTNV-1">
          <mxGeometry x="680" y="-10" width="80" height="80" as="geometry" />
        </mxCell>
        <mxCell id="vyFX91zkhyFve1yzSaoB-21" value="Gravity" style="rhombus;whiteSpace=wrap;html=1;rounded=0;" vertex="1" parent="WIyWlLk6GJQsqaUBKTNV-1">
          <mxGeometry x="643" y="200" width="80" height="80" as="geometry" />
        </mxCell>
        <mxCell id="vyFX91zkhyFve1yzSaoB-23" value="Buttons" style="rhombus;whiteSpace=wrap;html=1;rounded=0;" vertex="1" parent="WIyWlLk6GJQsqaUBKTNV-1">
          <mxGeometry x="643" y="-60" width="80" height="80" as="geometry" />
        </mxCell>
        <mxCell id="vyFX91zkhyFve1yzSaoB-27" value="Movement" style="rhombus;whiteSpace=wrap;html=1;rounded=0;" vertex="1" parent="WIyWlLk6GJQsqaUBKTNV-1">
          <mxGeometry x="20" y="70" width="80" height="80" as="geometry" />
        </mxCell>
        <mxCell id="vyFX91zkhyFve1yzSaoB-29" value="Jump" style="rhombus;whiteSpace=wrap;html=1;rounded=0;" vertex="1" parent="WIyWlLk6GJQsqaUBKTNV-1">
          <mxGeometry x="50" y="160" width="80" height="80" as="geometry" />
        </mxCell>
        <mxCell id="vyFX91zkhyFve1yzSaoB-36" value="" style="edgeStyle=orthogonalEdgeStyle;rounded=0;orthogonalLoop=1;jettySize=auto;html=1;" edge="1" parent="WIyWlLk6GJQsqaUBKTNV-1" source="vyFX91zkhyFve1yzSaoB-33" target="vyFX91zkhyFve1yzSaoB-35">
          <mxGeometry relative="1" as="geometry" />
        </mxCell>
        <mxCell id="vyFX91zkhyFve1yzSaoB-33" value="Main menu" style="rhombus;whiteSpace=wrap;html=1;rounded=0;" vertex="1" parent="WIyWlLk6GJQsqaUBKTNV-1">
          <mxGeometry x="574" y="445" width="80" height="80" as="geometry" />
        </mxCell>
        <mxCell id="vyFX91zkhyFve1yzSaoB-35" value="Level select" style="rhombus;whiteSpace=wrap;html=1;rounded=0;" vertex="1" parent="WIyWlLk6GJQsqaUBKTNV-1">
          <mxGeometry x="680" y="445" width="80" height="80" as="geometry" />
        </mxCell>
        <mxCell id="vyFX91zkhyFve1yzSaoB-37" value="Music/sound design" style="rhombus;whiteSpace=wrap;html=1;rounded=0;" vertex="1" parent="WIyWlLk6GJQsqaUBKTNV-1">
          <mxGeometry x="154" y="637.5" width="104" height="95" as="geometry" />
        </mxCell>
        <mxCell id="vyFX91zkhyFve1yzSaoB-39" value="Art (minimalist)" style="rhombus;whiteSpace=wrap;html=1;rounded=0;" vertex="1" parent="WIyWlLk6GJQsqaUBKTNV-1">
          <mxGeometry x="574" y="637.5" width="106" height="95" as="geometry" />
        </mxCell>
      </root>
    </mxGraphModel>
  </diagram>
</mxfile>
